PathFileType	4	(X/Y/Z)	C:/Users/beibeiliu/ov580/test_trc\sequence.12_training_dense_right.trc
DataRate	CameraRate	NumFrames	NumMarkers	Units	OrigDataRate	OrigDataStartFrame	OrigNumFrames
120	120	16	19	mm	120	51	76
Frame#	Time	ThumbCMC			ThumbMCP			ThumbIP			ThumbTip			IndexMCP			IndexPIP			IndexTip			MiddleMCP			MiddlePIP			MiddleTip			RingMCP			RingPIP			RingTip			PinkyMCP			PinkyPIP			PinkyTip			BackHand1			BackHand2			BackHand3	
		X0	Y0	Z0	X1	Y1	Z1	X2	Y2	Z2	X3	Y3	Z3	X4	Y4	Z4	X5	Y5	Z5	X6	Y6	Z6	X7	Y7	Z7	X8	Y8	Z8	X9	Y9	Z9	X10	Y10	Z10	X11	Y11	Z11	X12	Y12	Z12	X13	Y13	Z13	X14	Y14	Z14	X15	Y15	Z15	X16	Y16	Z16	X17	Y17	Z17	X18	Y18	Z18	
50	0.416667	138.055	24.3967	120.97	103.541	27.7108	108.565	84.4711	21.5801	92.3476	69.7696	3.24862	75.8397	148.311	-4.76196	55.1934	139.922	-6.38816	31.003	131.3	-12.6713	10.2327	135.782	-31.3814	55.9485	119.747	-35.1397	36.3398	93.2753	-40.7384	19.468	117.503	-43.1982	70.1608	90.6859	-32.8585	61.0405	73.6017	-9.16431	83.0416	115.696	-55.246	87.7267	102.078	-59.4959	69.5022	85.1083	-69.5437	54.6403	151.719	-37.7166	112.766	160.974	-32.0764	141.041	166.562	-8.59449	121.166	
51	0.425	168.305	15.9547	124.095	138.379	25.2889	100.973	120.823	26.9088	83.8624	104.086	17.7363	65.0105	175.403	-22.8893	61.6989	170.601	-22.2418	36.3682	166.485	-22.7601	9.68639	154.927	-41.1993	62.5052	141.718	-41.3665	36.2787	121.413	-33.2887	10.1616	130.212	-44.5874	70.1824	112.498	-20.9193	52.9534	102.305	6.26203	69.6702	120.343	-54.2641	84.894	105.51	-56.3429	71.0644	91.8304	-61.2393	46.4603	156.703	-49.0922	116.845	160.032	-45.9786	148.384	183.36	-26.5935	125.419	
52	0.433333	191.32	-0.26582	126.828	167.265	15.8386	100.31	153.487	15.7264	77.3921	141.395	13.5456	57.6625	202.652	-44.1517	67.1626	206.511	-43.2574	41.6993	200.053	-47.5388	15.0796	177.573	-60.2912	66.4007	172.285	-56.95	39.6939	154.817	-47.4017	13.1416	156.036	-54.4494	68.3537	144.156	-33.8955	49.994	138.396	-1.10126	59.0039	139.679	-61.6116	86.148	129.282	-63.0421	65.105	118.846	-66.4368	42.9171	166.218	-61.4893	125.044	169.108	-51.2829	156.188	193.945	-42.9825	135.459	
53	0.441667	208.732	-9.52732	135.387	191.812	4.57404	102.642	183.476	4.35565	78.6165	174.84	-4.04794	52.0855	233.741	-58.614	88.7164	239.553	-62.3782	64.0263	240.565	-65.3188	37.558	212.323	-73.697	82.217	208.181	-76.2063	48.9639	199.456	-66.7881	23.1426	186.331	-71.2603	76.0063	180.294	-54.1524	53.1639	178.993	-19.0211	53.7194	165.847	-75.2082	92.1161	159.368	-78.419	69.379	160.121	-81.7175	44.269	184.755	-69.3704	137.116	180.612	-58.1113	163.179	213.52	-50.9476	149.564	
54	0.45	217.605	-8.79942	141.184	204.276	-3.5396	107.422	202.947	-6.71313	77.4877	200.058	-14.2472	57.7007	265.069	-52.7361	101.423	277.513	-53.7016	76.8955	280.852	-56.7349	54.3626	248.091	-71.9709	94.658	251.476	-74.9291	63.0691	248.549	-67.7866	37.0678	225.919	-73.4586	86.8324	217.442	-64.3322	60.5582	207.78	-35.5101	52.0342	205.021	-84.0514	95.9076	205.294	-87.0981	72.3661	206.804	-90.3043	44.4324	213.432	-68.4387	142.821	197.748	-58.7433	169.295	232.573	-45.1131	158.298	
55	0.458333	212.999	1.81983	139.318	203.895	-1.79106	102.974	202.885	-5.67992	77.7545	208.567	-20.085	55.7774	276.196	-14.7461	106.841	288.415	-15.8085	82.9293	295.619	-17.3384	60.2967	271.149	-42.0512	101.317	279.109	-44.3907	72.7428	275.066	-43.9485	39.6066	251.434	-58.078	95.368	246.195	-47.5425	64.0581	220.88	-35.0815	49.9587	238.529	-71.7361	104.534	242.891	-79.2739	78.8557	251.108	-79.2709	55.8425	236.452	-54.3968	147.778	215.121	-48.2877	171.843	240.053	-19.088	160.655	
56	0.466667	194.546	7.51324	132.285	185.323	-3.74617	97.072	190.067	-9.87244	71.8853	198.706	-20.4091	51.6018	257.539	16.1416	96.3774	266.08	23.0112	75.0782	275.089	22.5691	47.4654	265.365	-8.60575	95.2184	274.145	-12.054	68.5592	272.42	-14.1529	36.1975	255.005	-28.9031	91.0674	246.112	-34.9526	59.6585	217.415	-33.772	47.9892	251.548	-48.7111	101.655	258.084	-59.0578	79.7265	263.894	-63.7238	54.5357	239.454	-32.1269	144.955	222.759	-32.0189	168.822	228.952	-0.35392	152.879	
57	0.475	164.051	6.19038	124.413	158.741	-10.0317	89.1018	164.14	-19.467	62.264	176.829	-28.49	50.4578	214.979	33.0005	80.6326	224.199	37.3869	54.6817	229.786	34.5235	27.1245	235.751	9.63259	79.2793	243.921	8.57829	49.2769	243.116	-2.03461	22.2053	235.538	-14.0543	80.0229	227.432	-24.1533	51.2296	196.17	-33.4585	42.8241	242.59	-32.9404	92.5426	247.268	-36.67	72.3344	257.426	-45.0075	46.1542	222.744	-7.3382	133.932	212.322	-13.2216	157.555	202.273	14.5087	139.641	
58	0.483333	138.631	-5.48215	118.715	131.595	-29.9144	93.7738	134.707	-41.2325	68.5102	154.86	-50.3118	52.1851	173.409	21.3266	64.5743	173.672	25.6409	35.4804	177.987	20.0847	11.3095	198.426	8.11155	66.0999	207.623	-0.237468	34.2852	202.457	-14.8246	6.45023	204.442	-11.7417	67.9078	199.505	-36.1413	45.9948	174.854	-53.3414	46.0263	220.163	-27.5856	85.8529	227.107	-36.6175	65.5714	237.887	-45.097	44.0659	199.392	-2.86668	123.808	191.099	-2.77844	153.142	171.087	16.4353	129.032	
59	0.491667	119.183	-17.1892	122.67	110.124	-46.4162	101.582	120.356	-60.8089	79.1473	132.362	-71.6653	63.8313	139.261	2.46847	58.2379	140.859	-1.9508	31.9599	145.133	-11.3336	6.28286	170.13	-7.63039	55.8218	174.769	-19.4084	28.5878	171.959	-40.4806	8.33396	182.126	-27.9263	64.1543	175.479	-55.0909	47.9318	154.403	-76.2064	59.1192	198.147	-35.3872	84.7869	205.293	-48.7353	65.9843	209.273	-60.3474	44.7704	177.804	-5.81276	112.349	173.268	-0.127129	146.082	149.314	10.717	123.125	
60	0.5	102.354	-15.2298	128.547	95.9091	-45.4319	111.531	93.022	-64.8095	91.0464	103.603	-81.3806	73.2369	124.876	-10.6343	55.5713	117.782	-19.3336	29.7336	116.439	-31.0592	6.93009	147.789	-21.122	58.0177	145.938	-36.2242	30.881	140.002	-67.7603	11.8588	159.817	-45.6819	62.9046	146.8	-70.4659	54.9724	123.542	-85.9281	73.7225	176.187	-52.5064	85.0583	172.911	-67.5233	62.7831	176.359	-86.1409	48.3777	166.408	-14.8	111.538	164.735	-4.97701	141.092	139.453	6.21232	116.61	
61	0.508333	102.443	2.27411	124.727	77.1664	-20.9613	115.659	67.5406	-40.6417	95.1627	74.9949	-59.3682	81.1734	119.312	-4.16752	58.8348	111.443	-16.1814	31.1916	101.174	-24.7556	12.3566	137.029	-28.5676	58.9234	124.541	-41.2796	30.3663	104.233	-61.7863	17.3306	134.667	-47.6603	65.1855	113.669	-66.043	57.1324	87.9103	-69.896	79.6959	146.727	-61.5238	81.1154	139.509	-77.3735	68.9132	126.347	-94.3792	47.1123	157.246	-24.8642	109.246	162.346	-13.1166	137.665	141.276	9.55703	114.729	
62	0.516667	120.727	22.2458	121.831	88.2524	10.6579	110.991	69.3259	-2.46724	89.4364	63.3752	-20.3449	76.6554	132.993	-0.380288	56.434	121.781	-5.41531	32.705	106.978	-9.09808	8.7153	135.105	-28.0728	52.3722	117.841	-33.5016	31.0642	87.0391	-43.8789	18.1546	123.501	-44.7133	67.5786	91.2969	-43.4569	57.8677	70.178	-30.5645	82.8376	126.05	-61.6354	85.5288	110.015	-68.8856	67.432	94.4001	-77.529	48.782	154.928	-29.539	111.476	164.521	-23.6973	140.089	156.511	3.51381	112.66	
63	0.525	149.5	27.4213	115.929	117.236	30.8181	100.998	97.6647	29.2392	80.2309	82.6408	11.6718	64.0677	158.332	-3.85079	53.4347	151.281	0.69759	24.7776	133.709	-4.65064	4.1226	146.393	-28.162	54.0009	131.369	-28.814	30.4486	98.8636	-23.4583	11.7571	128.055	-37.5184	65.2564	101.15	-26.0474	52.3723	87.3917	-2.14532	69.2711	120.346	-51.8071	83.0653	108.031	-52.445	65.533	92.0233	-60.7234	45.5688	157.857	-36.9166	108.976	164.809	-30.3015	141.883	175.031	-4.48339	113.103	
64	0.533333	185.427	14.6212	121.574	160.365	28.3813	90.8778	146.392	31.6107	70.4964	131.502	17.6427	50.065	202.572	-22.882	61.0079	199.841	-20.9055	28.0419	186.954	-19.0564	5.02471	180.726	-41.5795	56.463	166.269	-41.0847	29.8506	150.652	-24.0701	6.72183	155.756	-43.1301	62.5685	136.48	-22.1503	41.7637	132.675	4.64345	50.8037	139.98	-51.7851	77.8851	128.441	-53.3034	56.7976	115.398	-57.5642	36.889	169.118	-48.1307	113.729	171.237	-41.4626	146.297	196.084	-25.4035	124.356	
65	0.541667	208.582	6.60385	125.539	189.304	15.539	93.8316	182.933	18.4914	67.2555	172.502	7.74328	47.0563	237.314	-38.1608	77.7214	239.826	-39.4342	45.9087	237.641	-35.3495	22.2917	213.917	-59.5033	67.5184	211.656	-56.7089	40.3836	204.907	-39.8119	14.3822	193.923	-54.2088	65.9439	185.988	-37.6297	42.0252	179.639	-5.50657	43.722	171.987	-61.775	77.738	164.293	-63.703	52.7081	161.309	-63.4768	31.0186	189.16	-54.1642	124.378	183.715	-42.8206	153.179	214.926	-37.4122	136.023	
